<svg width="1024" height="753" viewBox="0 0 1024 753" fill="none" xmlns="http://www.w3.org/2000/svg">
<g clip-path="url(#clip0_122_130)">
<rect width="1024" height="753" fill="#121214"/>
<g opacity="0.2" filter="url(#filter0_f_122_130)">
<ellipse cx="511.5" cy="71" rx="670.5" ry="350" fill="#338AF3"/>
</g>
<path d="M32.0349 307C33.5302 307 34.6622 307.63 35.4308 308.891C36.2134 310.138 36.6047 311.953 36.6047 314.336C36.6047 316.719 36.2134 318.541 35.4308 319.802C34.6622 321.063 33.5302 321.693 32.0349 321.693C30.5536 321.693 29.4216 321.063 28.639 319.802C27.8564 318.541 27.4651 316.719 27.4651 314.336C27.4651 311.967 27.8564 310.152 28.639 308.891C29.4216 307.63 30.5536 307 32.0349 307ZM28.9534 314.336C28.9534 316.026 29.1072 317.35 29.4146 318.306L34.0683 309.099C33.5791 308.448 32.9013 308.122 32.0349 308.122C31.0706 308.122 30.316 308.635 29.771 309.66C29.2259 310.672 28.9534 312.23 28.9534 314.336ZM32.0349 320.55C33.0131 320.55 33.7748 320.044 34.3198 319.033C34.8648 318.008 35.1373 316.442 35.1373 314.336C35.1373 312.549 34.9627 311.163 34.6133 310.18L29.9596 319.469C30.4627 320.19 31.1545 320.55 32.0349 320.55Z" fill="url(#paint0_linear_122_130)" fill-opacity="0.6"/>
<path d="M33.2926 344.135H36.3741V345.236H28.3874V344.135H31.9511V332.455L28.5551 334.471L27.9682 333.536L32.1607 330.959H33.2926V344.135Z" fill="url(#paint1_linear_122_130)" fill-opacity="0.6"/>
<path d="M32.0349 354.502C33.5302 354.502 34.6622 355.133 35.4308 356.393C36.2134 357.64 36.6047 359.455 36.6047 361.838C36.6047 364.221 36.2134 366.043 35.4308 367.304C34.6622 368.565 33.5302 369.195 32.0349 369.195C30.5536 369.195 29.4216 368.565 28.639 367.304C27.8564 366.043 27.4651 364.221 27.4651 361.838C27.4651 359.469 27.8564 357.654 28.639 356.393C29.4216 355.133 30.5536 354.502 32.0349 354.502ZM28.9534 361.838C28.9534 363.529 29.1072 364.852 29.4146 365.808L34.0683 356.601C33.5791 355.95 32.9013 355.624 32.0349 355.624C31.0706 355.624 30.316 356.137 29.771 357.162C29.2259 358.174 28.9534 359.732 28.9534 361.838ZM32.0349 368.052C33.0131 368.052 33.7748 367.546 34.3198 366.535C34.8648 365.51 35.1373 363.944 35.1373 361.838C35.1373 360.051 34.9627 358.665 34.6133 357.682L29.9596 366.971C30.4627 367.692 31.1545 368.052 32.0349 368.052Z" fill="url(#paint2_linear_122_130)" fill-opacity="0.6"/>
<path d="M33.2926 391.637H36.3741V392.738H28.3874V391.637H31.9511V379.957L28.5551 381.973L27.9682 381.038L32.1607 378.461H33.2926V391.637Z" fill="url(#paint3_linear_122_130)" fill-opacity="0.6"/>
<path d="M33.2926 415.388H36.3741V416.489H28.3874V415.388H31.9511V403.708L28.5551 405.724L27.9682 404.789L32.1607 402.212H33.2926V415.388Z" fill="url(#paint4_linear_122_130)" fill-opacity="0.6"/>
<path d="M32.0349 425.755C33.5302 425.755 34.6622 426.386 35.4308 427.646C36.2134 428.893 36.6047 430.708 36.6047 433.091C36.6047 435.474 36.2134 437.296 35.4308 438.557C34.6622 439.818 33.5302 440.448 32.0349 440.448C30.5536 440.448 29.4216 439.818 28.639 438.557C27.8564 437.296 27.4651 435.474 27.4651 433.091C27.4651 430.722 27.8564 428.907 28.639 427.646C29.4216 426.386 30.5536 425.755 32.0349 425.755ZM28.9534 433.091C28.9534 434.782 29.1072 436.105 29.4146 437.061L34.0683 427.854C33.5791 427.203 32.9013 426.878 32.0349 426.878C31.0706 426.878 30.316 427.39 29.771 428.415C29.2259 429.427 28.9534 430.985 28.9534 433.091ZM32.0349 439.305C33.0131 439.305 33.7748 438.8 34.3198 437.788C34.8648 436.763 35.1373 435.197 35.1373 433.091C35.1373 431.304 34.9627 429.919 34.6133 428.935L29.9596 438.225C30.4627 438.945 31.1545 439.305 32.0349 439.305Z" fill="url(#paint5_linear_122_130)" fill-opacity="0.6"/>
<path d="M33.2926 462.89H36.3741V463.992H28.3874V462.89H31.9511V451.21L28.5551 453.226L27.9682 452.291L32.1607 449.714H33.2926V462.89Z" fill="url(#paint6_linear_122_130)" fill-opacity="0.6"/>
<path d="M32.0349 473.257C33.5302 473.257 34.6622 473.888 35.4308 475.149C36.2134 476.396 36.6047 478.211 36.6047 480.594C36.6047 482.977 36.2134 484.798 35.4308 486.059C34.6622 487.32 33.5302 487.95 32.0349 487.95C30.5536 487.95 29.4216 487.32 28.639 486.059C27.8564 484.798 27.4651 482.977 27.4651 480.594C27.4651 478.224 27.8564 476.409 28.639 475.149C29.4216 473.888 30.5536 473.257 32.0349 473.257ZM28.9534 480.594C28.9534 482.284 29.1072 483.607 29.4146 484.563L34.0683 475.356C33.5791 474.705 32.9013 474.38 32.0349 474.38C31.0706 474.38 30.316 474.892 29.771 475.918C29.2259 476.929 28.9534 478.488 28.9534 480.594ZM32.0349 486.807C33.0131 486.807 33.7748 486.302 34.3198 485.29C34.8648 484.265 35.1373 482.699 35.1373 480.594C35.1373 478.806 34.9627 477.421 34.6133 476.437L29.9596 485.727C30.4627 486.447 31.1545 486.807 32.0349 486.807Z" fill="url(#paint7_linear_122_130)" fill-opacity="0.6"/>
<path d="M32.0349 497.008C33.5302 497.008 34.6622 497.639 35.4308 498.9C36.2134 500.147 36.6047 501.962 36.6047 504.345C36.6047 506.728 36.2134 508.549 35.4308 509.81C34.6622 511.071 33.5302 511.701 32.0349 511.701C30.5536 511.701 29.4216 511.071 28.639 509.81C27.8564 508.549 27.4651 506.728 27.4651 504.345C27.4651 501.975 27.8564 500.16 28.639 498.9C29.4216 497.639 30.5536 497.008 32.0349 497.008ZM28.9534 504.345C28.9534 506.035 29.1072 507.358 29.4146 508.314L34.0683 499.107C33.5791 498.456 32.9013 498.131 32.0349 498.131C31.0706 498.131 30.316 498.643 29.771 499.669C29.2259 500.68 28.9534 502.239 28.9534 504.345ZM32.0349 510.558C33.0131 510.558 33.7748 510.053 34.3198 509.041C34.8648 508.016 35.1373 506.451 35.1373 504.345C35.1373 502.557 34.9627 501.172 34.6133 500.188L29.9596 509.478C30.4627 510.198 31.1545 510.558 32.0349 510.558Z" fill="url(#paint8_linear_122_130)" fill-opacity="0.6"/>
<path d="M33.2926 534.143H36.3741V535.245H28.3874V534.143H31.9511V522.464L28.5551 524.48L27.9682 523.544L32.1607 520.967H33.2926V534.143Z" fill="url(#paint9_linear_122_130)" fill-opacity="0.6"/>
<path d="M32.0349 544.511C33.5302 544.511 34.6622 545.141 35.4308 546.402C36.2134 547.649 36.6047 549.464 36.6047 551.847C36.6047 554.23 36.2134 556.052 35.4308 557.312C34.6622 558.573 33.5302 559.204 32.0349 559.204C30.5536 559.204 29.4216 558.573 28.639 557.312C27.8564 556.052 27.4651 554.23 27.4651 551.847C27.4651 549.478 27.8564 547.663 28.639 546.402C29.4216 545.141 30.5536 544.511 32.0349 544.511ZM28.9534 551.847C28.9534 553.537 29.1072 554.86 29.4146 555.816L34.0683 546.61C33.5791 545.958 32.9013 545.633 32.0349 545.633C31.0706 545.633 30.316 546.145 29.771 547.171C29.2259 548.182 28.9534 549.741 28.9534 551.847ZM32.0349 558.061C33.0131 558.061 33.7748 557.555 34.3198 556.543C34.8648 555.518 35.1373 553.953 35.1373 551.847C35.1373 550.059 34.9627 548.674 34.6133 547.69L29.9596 556.98C30.4627 557.7 31.1545 558.061 32.0349 558.061Z" fill="url(#paint10_linear_122_130)" fill-opacity="0.6"/>
<path d="M33.2926 581.645H36.3741V582.747H28.3874V581.645H31.9511V569.966L28.5551 571.982L27.9682 571.046L32.1607 568.469H33.2926V581.645Z" fill="url(#paint11_linear_122_130)" fill-opacity="0.6"/>
<path d="M33.2926 605.396H36.3741V606.498H28.3874V605.396H31.9511V593.717L28.5551 595.733L27.9682 594.798L32.1607 592.221H33.2926V605.396Z" fill="url(#paint12_linear_122_130)" fill-opacity="0.6"/>
<path d="M70.9651 354.502C72.4604 354.502 73.5924 355.133 74.361 356.393C75.1436 357.64 75.5349 359.455 75.5349 361.838C75.5349 364.221 75.1436 366.043 74.361 367.304C73.5924 368.565 72.4604 369.195 70.9651 369.195C69.4838 369.195 68.3518 368.565 67.5692 367.304C66.7866 366.043 66.3953 364.221 66.3953 361.838C66.3953 359.469 66.7866 357.654 67.5692 356.393C68.3518 355.133 69.4838 354.502 70.9651 354.502ZM67.8836 361.838C67.8836 363.529 68.0374 364.852 68.3448 365.808L72.9985 356.601C72.5093 355.95 71.8315 355.624 70.9651 355.624C70.0008 355.624 69.2462 356.137 68.7012 357.162C68.1561 358.174 67.8836 359.732 67.8836 361.838ZM70.9651 368.052C71.9433 368.052 72.705 367.546 73.25 366.535C73.795 365.51 74.0675 363.944 74.0675 361.838C74.0675 360.051 73.8928 358.665 73.5435 357.682L68.8898 366.971C69.3929 367.692 70.0847 368.052 70.9651 368.052Z" fill="url(#paint13_linear_122_130)" fill-opacity="0.6"/>
<path d="M72.2228 391.637H75.3043V392.738H67.3176V391.637H70.8812V379.957L67.4853 381.973L66.8984 381.038L71.0909 378.461H72.2228V391.637Z" fill="url(#paint14_linear_122_130)" fill-opacity="0.6"/>
<path d="M70.9651 402.004C72.4604 402.004 73.5924 402.635 74.361 403.895C75.1436 405.142 75.5349 406.957 75.5349 409.34C75.5349 411.723 75.1436 413.545 74.361 414.806C73.5924 416.067 72.4604 416.697 70.9651 416.697C69.4838 416.697 68.3518 416.067 67.5692 414.806C66.7866 413.545 66.3953 411.723 66.3953 409.34C66.3953 406.971 66.7866 405.156 67.5692 403.895C68.3518 402.635 69.4838 402.004 70.9651 402.004ZM67.8836 409.34C67.8836 411.031 68.0374 412.354 68.3448 413.31L72.9985 404.103C72.5093 403.452 71.8315 403.126 70.9651 403.126C70.0008 403.126 69.2462 403.639 68.7012 404.664C68.1561 405.676 67.8836 407.234 67.8836 409.34ZM70.9651 415.554C71.9433 415.554 72.705 415.049 73.25 414.037C73.795 413.012 74.0675 411.446 74.0675 409.34C74.0675 407.553 73.8928 406.168 73.5435 405.184L68.8898 414.474C69.3929 415.194 70.0847 415.554 70.9651 415.554Z" fill="url(#paint15_linear_122_130)" fill-opacity="0.6"/>
<path d="M70.9651 425.755C72.4604 425.755 73.5924 426.386 74.361 427.646C75.1436 428.893 75.5349 430.708 75.5349 433.091C75.5349 435.474 75.1436 437.296 74.361 438.557C73.5924 439.818 72.4604 440.448 70.9651 440.448C69.4838 440.448 68.3518 439.818 67.5692 438.557C66.7866 437.296 66.3953 435.474 66.3953 433.091C66.3953 430.722 66.7866 428.907 67.5692 427.646C68.3518 426.386 69.4838 425.755 70.9651 425.755ZM67.8836 433.091C67.8836 434.782 68.0374 436.105 68.3448 437.061L72.9985 427.854C72.5093 427.203 71.8315 426.878 70.9651 426.878C70.0008 426.878 69.2462 427.39 68.7012 428.415C68.1561 429.427 67.8836 430.985 67.8836 433.091ZM70.9651 439.305C71.9433 439.305 72.705 438.8 73.25 437.788C73.795 436.763 74.0675 435.197 74.0675 433.091C74.0675 431.304 73.8928 429.919 73.5435 428.935L68.8898 438.225C69.3929 438.945 70.0847 439.305 70.9651 439.305Z" fill="url(#paint16_linear_122_130)" fill-opacity="0.6"/>
<path d="M72.2228 462.89H75.3043V463.992H67.3176V462.89H70.8812V451.21L67.4853 453.226L66.8984 452.291L71.0909 449.714H72.2228V462.89Z" fill="url(#paint17_linear_122_130)" fill-opacity="0.6"/>
<path d="M70.9651 473.257C72.4604 473.257 73.5924 473.888 74.361 475.149C75.1436 476.396 75.5349 478.211 75.5349 480.594C75.5349 482.977 75.1436 484.798 74.361 486.059C73.5924 487.32 72.4604 487.95 70.9651 487.95C69.4838 487.95 68.3518 487.32 67.5692 486.059C66.7866 484.798 66.3953 482.977 66.3953 480.594C66.3953 478.224 66.7866 476.409 67.5692 475.149C68.3518 473.888 69.4838 473.257 70.9651 473.257ZM67.8836 480.594C67.8836 482.284 68.0374 483.607 68.3448 484.563L72.9985 475.356C72.5093 474.705 71.8315 474.38 70.9651 474.38C70.0008 474.38 69.2462 474.892 68.7012 475.918C68.1561 476.929 67.8836 478.488 67.8836 480.594ZM70.9651 486.807C71.9433 486.807 72.705 486.302 73.25 485.29C73.795 484.265 74.0675 482.699 74.0675 480.594C74.0675 478.806 73.8928 477.421 73.5435 476.437L68.8898 485.727C69.3929 486.447 70.0847 486.807 70.9651 486.807Z" fill="url(#paint18_linear_122_130)" fill-opacity="0.6"/>
<path d="M72.2228 510.392H75.3043V511.494H67.3176V510.392H70.8812V498.713L67.4853 500.728L66.8984 499.793L71.0909 497.216H72.2228V510.392Z" fill="url(#paint19_linear_122_130)" fill-opacity="0.6"/>
<path d="M70.9651 520.76C72.4604 520.76 73.5924 521.39 74.361 522.651C75.1436 523.898 75.5349 525.713 75.5349 528.096C75.5349 530.479 75.1436 532.301 74.361 533.561C73.5924 534.822 72.4604 535.453 70.9651 535.453C69.4838 535.453 68.3518 534.822 67.5692 533.561C66.7866 532.301 66.3953 530.479 66.3953 528.096C66.3953 525.726 66.7866 523.911 67.5692 522.651C68.3518 521.39 69.4838 520.76 70.9651 520.76ZM67.8836 528.096C67.8836 529.786 68.0374 531.109 68.3448 532.065L72.9985 522.859C72.5093 522.207 71.8315 521.882 70.9651 521.882C70.0008 521.882 69.2462 522.394 68.7012 523.42C68.1561 524.431 67.8836 525.99 67.8836 528.096ZM70.9651 534.31C71.9433 534.31 72.705 533.804 73.25 532.792C73.795 531.767 74.0675 530.202 74.0675 528.096C74.0675 526.308 73.8928 524.923 73.5435 523.939L68.8898 533.229C69.3929 533.949 70.0847 534.31 70.9651 534.31Z" fill="url(#paint20_linear_122_130)" fill-opacity="0.6"/>
<path d="M70.9651 544.511C72.4604 544.511 73.5924 545.141 74.361 546.402C75.1436 547.649 75.5349 549.464 75.5349 551.847C75.5349 554.23 75.1436 556.052 74.361 557.312C73.5924 558.573 72.4604 559.204 70.9651 559.204C69.4838 559.204 68.3518 558.573 67.5692 557.312C66.7866 556.052 66.3953 554.23 66.3953 551.847C66.3953 549.478 66.7866 547.663 67.5692 546.402C68.3518 545.141 69.4838 544.511 70.9651 544.511ZM67.8836 551.847C67.8836 553.537 68.0374 554.86 68.3448 555.816L72.9985 546.61C72.5093 545.958 71.8315 545.633 70.9651 545.633C70.0008 545.633 69.2462 546.145 68.7012 547.171C68.1561 548.182 67.8836 549.741 67.8836 551.847ZM70.9651 558.061C71.9433 558.061 72.705 557.555 73.25 556.543C73.795 555.518 74.0675 553.953 74.0675 551.847C74.0675 550.059 73.8928 548.674 73.5435 547.69L68.8898 556.98C69.3929 557.7 70.0847 558.061 70.9651 558.061Z" fill="url(#paint21_linear_122_130)" fill-opacity="0.6"/>
<path d="M72.2228 581.645H75.3043V582.747H67.3176V581.645H70.8812V569.966L67.4853 571.982L66.8984 571.046L71.0909 568.469H72.2228V581.645Z" fill="url(#paint22_linear_122_130)" fill-opacity="0.6"/>
<path d="M70.9651 592.013C72.4604 592.013 73.5924 592.643 74.361 593.904C75.1436 595.151 75.5349 596.966 75.5349 599.349C75.5349 601.732 75.1436 603.554 74.361 604.815C73.5924 606.075 72.4604 606.706 70.9651 606.706C69.4838 606.706 68.3518 606.075 67.5692 604.815C66.7866 603.554 66.3953 601.732 66.3953 599.349C66.3953 596.98 66.7866 595.165 67.5692 593.904C68.3518 592.643 69.4838 592.013 70.9651 592.013ZM67.8836 599.349C67.8836 601.039 68.0374 602.362 68.3448 603.318L72.9985 594.112C72.5093 593.461 71.8315 593.135 70.9651 593.135C70.0008 593.135 69.2462 593.648 68.7012 594.673C68.1561 595.684 67.8836 597.243 67.8836 599.349ZM70.9651 605.563C71.9433 605.563 72.705 605.057 73.25 604.046C73.795 603.02 74.0675 601.455 74.0675 599.349C74.0675 597.562 73.8928 596.176 73.5435 595.192L68.8898 604.482C69.3929 605.202 70.0847 605.563 70.9651 605.563Z" fill="url(#paint23_linear_122_130)" fill-opacity="0.6"/>
<path d="M72.2228 629.147H75.3043V630.249H67.3176V629.147H70.8812V617.468L67.4853 619.484L66.8984 618.549L71.0909 615.972H72.2228V629.147Z" fill="url(#paint24_linear_122_130)" fill-opacity="0.6"/>
<path d="M72.2228 652.899H75.3043V654H67.3176V652.899H70.8812V641.219L67.4853 643.235L66.8984 642.3L71.0909 639.723H72.2228V652.899Z" fill="url(#paint25_linear_122_130)" fill-opacity="0.6"/>
<path d="M12.5698 378.253C14.0651 378.253 15.1971 378.884 15.9657 380.144C16.7483 381.391 17.1396 383.206 17.1396 385.589C17.1396 387.972 16.7483 389.794 15.9657 391.055C15.1971 392.316 14.0651 392.946 12.5698 392.946C11.0885 392.946 9.95649 392.316 9.1739 391.055C8.3913 389.794 8 387.972 8 385.589C8 383.22 8.3913 381.405 9.1739 380.144C9.95649 378.884 11.0885 378.253 12.5698 378.253ZM9.48833 385.589C9.48833 387.28 9.64206 388.603 9.9495 389.559L14.6032 380.352C14.114 379.701 13.4363 379.375 12.5698 379.375C11.6055 379.375 10.8509 379.888 10.3059 380.913C9.76084 381.925 9.48833 383.483 9.48833 385.589ZM12.5698 391.803C13.5481 391.803 14.3097 391.297 14.8547 390.286C15.3997 389.261 15.6722 387.695 15.6722 385.589C15.6722 383.802 15.4976 382.417 15.1482 381.433L10.4945 390.722C10.9976 391.443 11.6894 391.803 12.5698 391.803Z" fill="url(#paint26_linear_122_130)" fill-opacity="0.6"/>
<path d="M12.5698 402.004C14.0651 402.004 15.1971 402.635 15.9657 403.895C16.7483 405.142 17.1396 406.957 17.1396 409.34C17.1396 411.723 16.7483 413.545 15.9657 414.806C15.1971 416.067 14.0651 416.697 12.5698 416.697C11.0885 416.697 9.95649 416.067 9.1739 414.806C8.3913 413.545 8 411.723 8 409.34C8 406.971 8.3913 405.156 9.1739 403.895C9.95649 402.635 11.0885 402.004 12.5698 402.004ZM9.48833 409.34C9.48833 411.031 9.64206 412.354 9.9495 413.31L14.6032 404.103C14.114 403.452 13.4363 403.126 12.5698 403.126C11.6055 403.126 10.8509 403.639 10.3059 404.664C9.76084 405.676 9.48833 407.234 9.48833 409.34ZM12.5698 415.554C13.5481 415.554 14.3097 415.049 14.8547 414.037C15.3997 413.012 15.6722 411.446 15.6722 409.34C15.6722 407.553 15.4976 406.168 15.1482 405.184L10.4945 414.474C10.9976 415.194 11.6894 415.554 12.5698 415.554Z" fill="url(#paint27_linear_122_130)" fill-opacity="0.6"/>
<path d="M13.8276 439.139H16.909V440.24H8.92235V439.139H12.486V427.459L9.09005 429.475L8.5031 428.54L12.6956 425.963H13.8276V439.139Z" fill="url(#paint28_linear_122_130)" fill-opacity="0.6"/>
<path d="M12.5698 449.506C14.0651 449.506 15.1971 450.137 15.9657 451.398C16.7483 452.644 17.1396 454.459 17.1396 456.842C17.1396 459.225 16.7483 461.047 15.9657 462.308C15.1971 463.569 14.0651 464.199 12.5698 464.199C11.0885 464.199 9.95649 463.569 9.1739 462.308C8.3913 461.047 8 459.225 8 456.842C8 454.473 8.3913 452.658 9.1739 451.398C9.95649 450.137 11.0885 449.506 12.5698 449.506ZM9.48833 456.842C9.48833 458.533 9.64206 459.856 9.9495 460.812L14.6032 451.605C14.114 450.954 13.4363 450.629 12.5698 450.629C11.6055 450.629 10.8509 451.141 10.3059 452.166C9.76084 453.178 9.48833 454.737 9.48833 456.842ZM12.5698 463.056C13.5481 463.056 14.3097 462.551 14.8547 461.539C15.3997 460.514 15.6722 458.948 15.6722 456.842C15.6722 455.055 15.4976 453.67 15.1482 452.686L10.4945 461.976C10.9976 462.696 11.6894 463.056 12.5698 463.056Z" fill="url(#paint29_linear_122_130)" fill-opacity="0.6"/>
<path d="M13.8276 486.641H16.909V487.743H8.92235V486.641H12.486V474.962L9.09005 476.977L8.5031 476.042L12.6956 473.465H13.8276V486.641Z" fill="url(#paint30_linear_122_130)" fill-opacity="0.6"/>
<path d="M13.8276 510.392H16.909V511.494H8.92235V510.392H12.486V498.713L9.09005 500.728L8.5031 499.793L12.6956 497.216H13.8276V510.392Z" fill="url(#paint31_linear_122_130)" fill-opacity="0.6"/>
<path d="M52.7577 344.135H55.8392V345.236H47.8525V344.135H51.4162V332.455L48.0202 334.471L47.4333 333.536L51.6258 330.959H52.7577V344.135Z" fill="url(#paint32_linear_122_130)" fill-opacity="0.6"/>
<path d="M51.5 354.502C52.9953 354.502 54.1273 355.133 54.8959 356.393C55.6785 357.64 56.0698 359.455 56.0698 361.838C56.0698 364.221 55.6785 366.043 54.8959 367.304C54.1273 368.565 52.9953 369.195 51.5 369.195C50.0187 369.195 48.8867 368.565 48.1041 367.304C47.3215 366.043 46.9302 364.221 46.9302 361.838C46.9302 359.469 47.3215 357.654 48.1041 356.393C48.8867 355.133 50.0187 354.502 51.5 354.502ZM48.4185 361.838C48.4185 363.529 48.5723 364.852 48.8797 365.808L53.5334 356.601C53.0442 355.95 52.3664 355.624 51.5 355.624C50.5357 355.624 49.7811 356.137 49.2361 357.162C48.691 358.174 48.4185 359.732 48.4185 361.838ZM51.5 368.052C52.4782 368.052 53.2399 367.546 53.7849 366.535C54.3299 365.51 54.6024 363.944 54.6024 361.838C54.6024 360.051 54.4277 358.665 54.0784 357.682L49.4247 366.971C49.9278 367.692 50.6196 368.052 51.5 368.052Z" fill="url(#paint33_linear_122_130)" fill-opacity="0.6"/>
<path d="M52.7577 391.637H55.8392V392.738H47.8525V391.637H51.4162V379.957L48.0202 381.973L47.4333 381.038L51.6258 378.461H52.7577V391.637Z" fill="url(#paint34_linear_122_130)" fill-opacity="0.6"/>
<path d="M52.7577 415.388H55.8392V416.489H47.8525V415.388H51.4162V403.708L48.0202 405.724L47.4333 404.789L51.6258 402.212H52.7577V415.388Z" fill="url(#paint35_linear_122_130)" fill-opacity="0.6"/>
<path d="M51.5 425.755C52.9953 425.755 54.1273 426.386 54.8959 427.646C55.6785 428.893 56.0698 430.708 56.0698 433.091C56.0698 435.474 55.6785 437.296 54.8959 438.557C54.1273 439.818 52.9953 440.448 51.5 440.448C50.0187 440.448 48.8867 439.818 48.1041 438.557C47.3215 437.296 46.9302 435.474 46.9302 433.091C46.9302 430.722 47.3215 428.907 48.1041 427.646C48.8867 426.386 50.0187 425.755 51.5 425.755ZM48.4185 433.091C48.4185 434.782 48.5723 436.105 48.8797 437.061L53.5334 427.854C53.0442 427.203 52.3664 426.878 51.5 426.878C50.5357 426.878 49.7811 427.39 49.2361 428.415C48.691 429.427 48.4185 430.985 48.4185 433.091ZM51.5 439.305C52.4782 439.305 53.2399 438.8 53.7849 437.788C54.3299 436.763 54.6024 435.197 54.6024 433.091C54.6024 431.304 54.4277 429.919 54.0784 428.935L49.4247 438.225C49.9278 438.945 50.6196 439.305 51.5 439.305Z" fill="url(#paint36_linear_122_130)" fill-opacity="0.6"/>
<path d="M52.7577 462.89H55.8392V463.992H47.8525V462.89H51.4162V451.21L48.0202 453.226L47.4333 452.291L51.6258 449.714H52.7577V462.89Z" fill="url(#paint37_linear_122_130)" fill-opacity="0.6"/>
<path d="M52.7577 486.641H55.8392V487.743H47.8525V486.641H51.4162V474.962L48.0202 476.977L47.4333 476.042L51.6258 473.465H52.7577V486.641Z" fill="url(#paint38_linear_122_130)" fill-opacity="0.6"/>
<path d="M51.5 497.008C52.9953 497.008 54.1273 497.639 54.8959 498.9C55.6785 500.147 56.0698 501.962 56.0698 504.345C56.0698 506.728 55.6785 508.549 54.8959 509.81C54.1273 511.071 52.9953 511.701 51.5 511.701C50.0187 511.701 48.8867 511.071 48.1041 509.81C47.3215 508.549 46.9302 506.728 46.9302 504.345C46.9302 501.975 47.3215 500.16 48.1041 498.9C48.8867 497.639 50.0187 497.008 51.5 497.008ZM48.4185 504.345C48.4185 506.035 48.5723 507.358 48.8797 508.314L53.5334 499.107C53.0442 498.456 52.3664 498.131 51.5 498.131C50.5357 498.131 49.7811 498.643 49.2361 499.669C48.691 500.68 48.4185 502.239 48.4185 504.345ZM51.5 510.558C52.4782 510.558 53.2399 510.053 53.7849 509.041C54.3299 508.016 54.6024 506.451 54.6024 504.345C54.6024 502.557 54.4277 501.172 54.0784 500.188L49.4247 509.478C49.9278 510.198 50.6196 510.558 51.5 510.558Z" fill="url(#paint39_linear_122_130)" fill-opacity="0.6"/>
<path d="M52.7577 534.143H55.8392V535.245H47.8525V534.143H51.4162V522.464L48.0202 524.48L47.4333 523.544L51.6258 520.967H52.7577V534.143Z" fill="url(#paint40_linear_122_130)" fill-opacity="0.6"/>
<path d="M51.5 544.511C52.9953 544.511 54.1273 545.141 54.8959 546.402C55.6785 547.649 56.0698 549.464 56.0698 551.847C56.0698 554.23 55.6785 556.052 54.8959 557.312C54.1273 558.573 52.9953 559.204 51.5 559.204C50.0187 559.204 48.8867 558.573 48.1041 557.312C47.3215 556.052 46.9302 554.23 46.9302 551.847C46.9302 549.478 47.3215 547.663 48.1041 546.402C48.8867 545.141 50.0187 544.511 51.5 544.511ZM48.4185 551.847C48.4185 553.537 48.5723 554.86 48.8797 555.816L53.5334 546.61C53.0442 545.958 52.3664 545.633 51.5 545.633C50.5357 545.633 49.7811 546.145 49.2361 547.171C48.691 548.182 48.4185 549.741 48.4185 551.847ZM51.5 558.061C52.4782 558.061 53.2399 557.555 53.7849 556.543C54.3299 555.518 54.6024 553.953 54.6024 551.847C54.6024 550.059 54.4277 548.674 54.0784 547.69L49.4247 556.98C49.9278 557.7 50.6196 558.061 51.5 558.061Z" fill="url(#paint41_linear_122_130)" fill-opacity="0.6"/>
<path d="M90.4302 330.751C91.9255 330.751 93.0575 331.381 93.8261 332.642C94.6087 333.889 95 335.704 95 338.087C95 340.47 94.6087 342.292 93.8261 343.553C93.0575 344.814 91.9255 345.444 90.4302 345.444C88.9489 345.444 87.8169 344.814 87.0343 343.553C86.2517 342.292 85.8604 340.47 85.8604 338.087C85.8604 335.718 86.2517 333.903 87.0343 332.642C87.8169 331.381 88.9489 330.751 90.4302 330.751ZM87.3487 338.087C87.3487 339.777 87.5024 341.101 87.8099 342.057L92.4636 332.85C91.9744 332.199 91.2966 331.873 90.4302 331.873C89.4659 331.873 88.7113 332.386 88.1663 333.411C87.6212 334.423 87.3487 335.981 87.3487 338.087ZM90.4302 344.301C91.4084 344.301 92.1701 343.795 92.7151 342.784C93.2601 341.759 93.5326 340.193 93.5326 338.087C93.5326 336.3 93.3579 334.914 93.0086 333.931L88.3549 343.22C88.858 343.941 89.5498 344.301 90.4302 344.301Z" fill="url(#paint42_linear_122_130)" fill-opacity="0.6"/>
<path d="M91.6879 367.886H94.7694V368.987H86.7827V367.886H90.3463V356.206L86.9504 358.222L86.3635 357.287L90.556 354.71H91.6879V367.886Z" fill="url(#paint43_linear_122_130)" fill-opacity="0.6"/>
<path d="M91.6879 391.637H94.7694V392.738H86.7827V391.637H90.3463V379.957L86.9504 381.973L86.3635 381.038L90.556 378.461H91.6879V391.637Z" fill="url(#paint44_linear_122_130)" fill-opacity="0.6"/>
<path d="M90.4302 402.004C91.9255 402.004 93.0575 402.635 93.8261 403.895C94.6087 405.142 95 406.957 95 409.34C95 411.723 94.6087 413.545 93.8261 414.806C93.0575 416.067 91.9255 416.697 90.4302 416.697C88.9489 416.697 87.8169 416.067 87.0343 414.806C86.2517 413.545 85.8604 411.723 85.8604 409.34C85.8604 406.971 86.2517 405.156 87.0343 403.895C87.8169 402.635 88.9489 402.004 90.4302 402.004ZM87.3487 409.34C87.3487 411.031 87.5024 412.354 87.8099 413.31L92.4636 404.103C91.9744 403.452 91.2966 403.126 90.4302 403.126C89.4659 403.126 88.7113 403.639 88.1663 404.664C87.6212 405.676 87.3487 407.234 87.3487 409.34ZM90.4302 415.554C91.4084 415.554 92.1701 415.049 92.7151 414.037C93.2601 413.012 93.5326 411.446 93.5326 409.34C93.5326 407.553 93.3579 406.168 93.0086 405.184L88.3549 414.474C88.858 415.194 89.5498 415.554 90.4302 415.554Z" fill="url(#paint45_linear_122_130)" fill-opacity="0.6"/>
<path d="M90.4302 425.755C91.9255 425.755 93.0575 426.386 93.8261 427.646C94.6087 428.893 95 430.708 95 433.091C95 435.474 94.6087 437.296 93.8261 438.557C93.0575 439.818 91.9255 440.448 90.4302 440.448C88.9489 440.448 87.8169 439.818 87.0343 438.557C86.2517 437.296 85.8604 435.474 85.8604 433.091C85.8604 430.722 86.2517 428.907 87.0343 427.646C87.8169 426.386 88.9489 425.755 90.4302 425.755ZM87.3487 433.091C87.3487 434.782 87.5024 436.105 87.8099 437.061L92.4636 427.854C91.9744 427.203 91.2966 426.878 90.4302 426.878C89.4659 426.878 88.7113 427.39 88.1663 428.415C87.6212 429.427 87.3487 430.985 87.3487 433.091ZM90.4302 439.305C91.4084 439.305 92.1701 438.8 92.7151 437.788C93.2601 436.763 93.5326 435.197 93.5326 433.091C93.5326 431.304 93.3579 429.919 93.0086 428.935L88.3549 438.225C88.858 438.945 89.5498 439.305 90.4302 439.305Z" fill="url(#paint46_linear_122_130)" fill-opacity="0.6"/>
<g opacity="0.6">
<path d="M918.93 7C920.356 7 921.436 7.60496 922.17 8.81488C922.916 10.0115 923.29 11.7532 923.29 14.0401C923.29 16.327 922.916 18.0754 922.17 19.2853C921.436 20.4952 920.356 21.1002 918.93 21.1002C917.517 21.1002 916.437 20.4952 915.69 19.2853C914.943 18.0754 914.57 16.327 914.57 14.0401C914.57 11.7665 914.943 10.0248 915.69 8.81488C916.437 7.60496 917.517 7 918.93 7ZM915.99 14.0401C915.99 15.6622 916.137 16.932 916.43 17.8494L920.87 9.01431C920.403 8.38941 919.756 8.07696 918.93 8.07696C918.01 8.07696 917.29 8.5689 916.77 9.55279C916.25 10.5234 915.99 12.0192 915.99 14.0401ZM918.93 20.0033C919.863 20.0033 920.59 19.518 921.11 18.5474C921.63 17.5635 921.89 16.0611 921.89 14.0401C921.89 12.325 921.723 10.9954 921.39 10.0514L916.95 18.9662C917.43 19.6576 918.09 20.0033 918.93 20.0033Z" fill="url(#paint47_linear_122_130)"/>
<path d="M920.13 42.6365H923.07V43.6936H915.45V42.6365H918.85V31.4282L915.61 33.3627L915.05 32.4653L919.05 29.9922H920.13V42.6365Z" fill="url(#paint48_linear_122_130)"/>
<path d="M918.93 52.5856C920.356 52.5856 921.436 53.1906 922.17 54.4005C922.916 55.5971 923.29 57.3389 923.29 59.6257C923.29 61.9126 922.916 63.661 922.17 64.8709C921.436 66.0808 920.356 66.6858 918.93 66.6858C917.517 66.6858 916.437 66.0808 915.69 64.8709C914.943 63.661 914.57 61.9126 914.57 59.6257C914.57 57.3521 914.943 55.6104 915.69 54.4005C916.437 53.1906 917.517 52.5856 918.93 52.5856ZM915.99 59.6257C915.99 61.2478 916.137 62.5176 916.43 63.435L920.87 54.5999C920.403 53.975 919.756 53.6626 918.93 53.6626C918.01 53.6626 917.29 54.1545 916.77 55.1384C916.25 56.109 915.99 57.6048 915.99 59.6257ZM918.93 65.5889C919.863 65.5889 920.59 65.1036 921.11 64.133C921.63 63.1491 921.89 61.6467 921.89 59.6257C921.89 57.9106 921.723 56.581 921.39 55.637L916.95 64.5518C917.43 65.2432 918.09 65.5889 918.93 65.5889Z" fill="url(#paint49_linear_122_130)"/>
<path d="M920.13 88.2221H923.07V89.2792H915.45V88.2221H918.85V77.0138L915.61 78.9483L915.05 78.0509L919.05 75.5778H920.13V88.2221Z" fill="url(#paint50_linear_122_130)"/>
<path d="M920.13 111.015H923.07V112.072H915.45V111.015H918.85V99.8066L915.61 101.741L915.05 100.844L919.05 98.3706H920.13V111.015Z" fill="url(#paint51_linear_122_130)"/>
<path d="M918.93 120.964C920.356 120.964 921.436 121.569 922.17 122.779C922.916 123.976 923.29 125.717 923.29 128.004C923.29 130.291 922.916 132.039 922.17 133.249C921.436 134.459 920.356 135.064 918.93 135.064C917.517 135.064 916.437 134.459 915.69 133.249C914.943 132.039 914.57 130.291 914.57 128.004C914.57 125.731 914.943 123.989 915.69 122.779C916.437 121.569 917.517 120.964 918.93 120.964ZM915.99 128.004C915.99 129.626 916.137 130.896 916.43 131.813L920.87 122.978C920.403 122.353 919.756 122.041 918.93 122.041C918.01 122.041 917.29 122.533 916.77 123.517C916.25 124.487 915.99 125.983 915.99 128.004ZM918.93 133.967C919.863 133.967 920.59 133.482 921.11 132.511C921.63 131.528 921.89 130.025 921.89 128.004C921.89 126.289 921.723 124.959 921.39 124.015L916.95 132.93C917.43 133.622 918.09 133.967 918.93 133.967Z" fill="url(#paint52_linear_122_130)"/>
<path d="M920.13 156.601H923.07V157.658H915.45V156.601H918.85V145.392L915.61 147.327L915.05 146.429L919.05 143.956H920.13V156.601Z" fill="url(#paint53_linear_122_130)"/>
<path d="M918.93 166.55C920.356 166.55 921.436 167.155 922.17 168.365C922.916 169.561 923.29 171.303 923.29 173.59C923.29 175.877 922.916 177.625 922.17 178.835C921.436 180.045 920.356 180.65 918.93 180.65C917.517 180.65 916.437 180.045 915.69 178.835C914.943 177.625 914.57 175.877 914.57 173.59C914.57 171.316 914.943 169.574 915.69 168.365C916.437 167.155 917.517 166.55 918.93 166.55ZM915.99 173.59C915.99 175.212 916.137 176.482 916.43 177.399L920.87 168.564C920.403 167.939 919.756 167.627 918.93 167.627C918.01 167.627 917.29 168.119 916.77 169.102C916.25 170.073 915.99 171.569 915.99 173.59ZM918.93 179.553C919.863 179.553 920.59 179.068 921.11 178.097C921.63 177.113 921.89 175.611 921.89 173.59C921.89 171.875 921.723 170.545 921.39 169.601L916.95 178.516C917.43 179.207 918.09 179.553 918.93 179.553Z" fill="url(#paint54_linear_122_130)"/>
<path d="M918.93 189.342C920.356 189.342 921.436 189.947 922.17 191.157C922.916 192.354 923.29 194.096 923.29 196.383C923.29 198.669 922.916 200.418 922.17 201.628C921.436 202.838 920.356 203.443 918.93 203.443C917.517 203.443 916.437 202.838 915.69 201.628C914.943 200.418 914.57 198.669 914.57 196.383C914.57 194.109 914.943 192.367 915.69 191.157C916.437 189.947 917.517 189.342 918.93 189.342ZM915.99 196.383C915.99 198.005 916.137 199.274 916.43 200.192L920.87 191.357C920.403 190.732 919.756 190.419 918.93 190.419C918.01 190.419 917.29 190.911 916.77 191.895C916.25 192.866 915.99 194.362 915.99 196.383ZM918.93 202.346C919.863 202.346 920.59 201.86 921.11 200.89C921.63 199.906 921.89 198.404 921.89 196.383C921.89 194.667 921.723 193.338 921.39 192.394L916.95 201.309C917.43 202 918.09 202.346 918.93 202.346Z" fill="url(#paint55_linear_122_130)"/>
<path d="M920.13 224.979H923.07V226.036H915.45V224.979H918.85V213.771L915.61 215.705L915.05 214.808L919.05 212.335H920.13V224.979Z" fill="url(#paint56_linear_122_130)"/>
<path d="M918.93 234.928C920.356 234.928 921.436 235.533 922.17 236.743C922.916 237.94 923.29 239.681 923.29 241.968C923.29 244.255 922.916 246.003 922.17 247.213C921.436 248.423 920.356 249.028 918.93 249.028C917.517 249.028 916.437 248.423 915.69 247.213C914.943 246.003 914.57 244.255 914.57 241.968C914.57 239.695 914.943 237.953 915.69 236.743C916.437 235.533 917.517 234.928 918.93 234.928ZM915.99 241.968C915.99 243.59 916.137 244.86 916.43 245.777L920.87 236.942C920.403 236.317 919.756 236.005 918.93 236.005C918.01 236.005 917.29 236.497 916.77 237.481C916.25 238.451 915.99 239.947 915.99 241.968ZM918.93 247.931C919.863 247.931 920.59 247.446 921.11 246.475C921.63 245.492 921.89 243.989 921.89 241.968C921.89 240.253 921.723 238.923 921.39 237.979L916.95 246.894C917.43 247.586 918.09 247.931 918.93 247.931Z" fill="url(#paint57_linear_122_130)"/>
<path d="M920.13 270.565H923.07V271.622H915.45V270.565H918.85V259.356L915.61 261.291L915.05 260.393L919.05 257.92H920.13V270.565Z" fill="url(#paint58_linear_122_130)"/>
<path d="M920.13 293.357H923.07V294.414H915.45V293.357H918.85V282.149L915.61 284.084L915.05 283.186L919.05 280.713H920.13V293.357Z" fill="url(#paint59_linear_122_130)"/>
<path d="M956.07 52.5856C957.497 52.5856 958.577 53.1906 959.31 54.4005C960.057 55.5971 960.43 57.3389 960.43 59.6257C960.43 61.9126 960.057 63.661 959.31 64.8709C958.577 66.0808 957.497 66.6858 956.07 66.6858C954.657 66.6858 953.577 66.0808 952.83 64.8709C952.084 63.661 951.71 61.9126 951.71 59.6257C951.71 57.3521 952.084 55.6104 952.83 54.4005C953.577 53.1906 954.657 52.5856 956.07 52.5856ZM953.13 59.6257C953.13 61.2478 953.277 62.5176 953.57 63.435L958.01 54.5999C957.543 53.975 956.897 53.6626 956.07 53.6626C955.15 53.6626 954.43 54.1545 953.91 55.1384C953.39 56.109 953.13 57.6048 953.13 59.6257ZM956.07 65.5889C957.003 65.5889 957.73 65.1036 958.25 64.133C958.77 63.1491 959.03 61.6467 959.03 59.6257C959.03 57.9106 958.863 56.581 958.53 55.637L954.09 64.5518C954.57 65.2432 955.23 65.5889 956.07 65.5889Z" fill="url(#paint60_linear_122_130)"/>
<path d="M957.27 88.2221H960.21V89.2792H952.59V88.2221H955.99V77.0138L952.75 78.9483L952.19 78.0509L956.19 75.5778H957.27V88.2221Z" fill="url(#paint61_linear_122_130)"/>
<path d="M956.07 98.1712C957.497 98.1712 958.577 98.7762 959.31 99.9861C960.057 101.183 960.43 102.924 960.43 105.211C960.43 107.498 960.057 109.247 959.31 110.457C958.577 111.666 957.497 112.271 956.07 112.271C954.657 112.271 953.577 111.666 952.83 110.457C952.084 109.247 951.71 107.498 951.71 105.211C951.71 102.938 952.084 101.196 952.83 99.9861C953.577 98.7762 954.657 98.1712 956.07 98.1712ZM953.13 105.211C953.13 106.833 953.277 108.103 953.57 109.021L958.01 100.186C957.543 99.5606 956.897 99.2482 956.07 99.2482C955.15 99.2482 954.43 99.7401 953.91 100.724C953.39 101.695 953.13 103.19 953.13 105.211ZM956.07 111.174C957.003 111.174 957.73 110.689 958.25 109.719C958.77 108.735 959.03 107.232 959.03 105.211C959.03 103.496 958.863 102.167 958.53 101.223L954.09 110.137C954.57 110.829 955.23 111.174 956.07 111.174Z" fill="url(#paint62_linear_122_130)"/>
<path d="M956.07 120.964C957.497 120.964 958.577 121.569 959.31 122.779C960.057 123.976 960.43 125.717 960.43 128.004C960.43 130.291 960.057 132.039 959.31 133.249C958.577 134.459 957.497 135.064 956.07 135.064C954.657 135.064 953.577 134.459 952.83 133.249C952.084 132.039 951.71 130.291 951.71 128.004C951.71 125.731 952.084 123.989 952.83 122.779C953.577 121.569 954.657 120.964 956.07 120.964ZM953.13 128.004C953.13 129.626 953.277 130.896 953.57 131.813L958.01 122.978C957.543 122.353 956.897 122.041 956.07 122.041C955.15 122.041 954.43 122.533 953.91 123.517C953.39 124.487 953.13 125.983 953.13 128.004ZM956.07 133.967C957.003 133.967 957.73 133.482 958.25 132.511C958.77 131.528 959.03 130.025 959.03 128.004C959.03 126.289 958.863 124.959 958.53 124.015L954.09 132.93C954.57 133.622 955.23 133.967 956.07 133.967Z" fill="url(#paint63_linear_122_130)"/>
<path d="M957.27 156.601H960.21V157.658H952.59V156.601H955.99V145.392L952.75 147.327L952.19 146.429L956.19 143.956H957.27V156.601Z" fill="url(#paint64_linear_122_130)"/>
<path d="M956.07 166.55C957.497 166.55 958.577 167.155 959.31 168.365C960.057 169.561 960.43 171.303 960.43 173.59C960.43 175.877 960.057 177.625 959.31 178.835C958.577 180.045 957.497 180.65 956.07 180.65C954.657 180.65 953.577 180.045 952.83 178.835C952.084 177.625 951.71 175.877 951.71 173.59C951.71 171.316 952.084 169.574 952.83 168.365C953.577 167.155 954.657 166.55 956.07 166.55ZM953.13 173.59C953.13 175.212 953.277 176.482 953.57 177.399L958.01 168.564C957.543 167.939 956.897 167.627 956.07 167.627C955.15 167.627 954.43 168.119 953.91 169.102C953.39 170.073 953.13 171.569 953.13 173.59ZM956.07 179.553C957.003 179.553 957.73 179.068 958.25 178.097C958.77 177.113 959.03 175.611 959.03 173.59C959.03 171.875 958.863 170.545 958.53 169.601L954.09 178.516C954.57 179.207 955.23 179.553 956.07 179.553Z" fill="url(#paint65_linear_122_130)"/>
<path d="M957.27 202.186H960.21V203.243H952.59V202.186H955.99V190.978L952.75 192.912L952.19 192.015L956.19 189.542H957.27V202.186Z" fill="url(#paint66_linear_122_130)"/>
<path d="M956.07 212.135C957.497 212.135 958.577 212.74 959.31 213.95C960.057 215.147 960.43 216.888 960.43 219.175C960.43 221.462 960.057 223.211 959.31 224.421C958.577 225.63 957.497 226.235 956.07 226.235C954.657 226.235 953.577 225.63 952.83 224.421C952.084 223.211 951.71 221.462 951.71 219.175C951.71 216.902 952.084 215.16 952.83 213.95C953.577 212.74 954.657 212.135 956.07 212.135ZM953.13 219.175C953.13 220.797 953.277 222.067 953.57 222.985L958.01 214.15C957.543 213.525 956.897 213.212 956.07 213.212C955.15 213.212 954.43 213.704 953.91 214.688C953.39 215.659 953.13 217.154 953.13 219.175ZM956.07 225.139C957.003 225.139 957.73 224.653 958.25 223.683C958.77 222.699 959.03 221.196 959.03 219.175C959.03 217.46 958.863 216.131 958.53 215.187L954.09 224.101C954.57 224.793 955.23 225.139 956.07 225.139Z" fill="url(#paint67_linear_122_130)"/>
<path d="M956.07 234.928C957.497 234.928 958.577 235.533 959.31 236.743C960.057 237.94 960.43 239.681 960.43 241.968C960.43 244.255 960.057 246.003 959.31 247.213C958.577 248.423 957.497 249.028 956.07 249.028C954.657 249.028 953.577 248.423 952.83 247.213C952.084 246.003 951.71 244.255 951.71 241.968C951.71 239.695 952.084 237.953 952.83 236.743C953.577 235.533 954.657 234.928 956.07 234.928ZM953.13 241.968C953.13 243.59 953.277 244.86 953.57 245.777L958.01 236.942C957.543 236.317 956.897 236.005 956.07 236.005C955.15 236.005 954.43 236.497 953.91 237.481C953.39 238.451 953.13 239.947 953.13 241.968ZM956.07 247.931C957.003 247.931 957.73 247.446 958.25 246.475C958.77 245.492 959.03 243.989 959.03 241.968C959.03 240.253 958.863 238.923 958.53 237.979L954.09 246.894C954.57 247.586 955.23 247.931 956.07 247.931Z" fill="url(#paint68_linear_122_130)"/>
<path d="M957.27 270.565H960.21V271.622H952.59V270.565H955.99V259.356L952.75 261.291L952.19 260.393L956.19 257.92H957.27V270.565Z" fill="url(#paint69_linear_122_130)"/>
<path d="M956.07 280.514C957.497 280.514 958.577 281.119 959.31 282.329C960.057 283.525 960.43 285.267 960.43 287.554C960.43 289.841 960.057 291.589 959.31 292.799C958.577 294.009 957.497 294.614 956.07 294.614C954.657 294.614 953.577 294.009 952.83 292.799C952.084 291.589 951.71 289.841 951.71 287.554C951.71 285.28 952.084 283.538 952.83 282.329C953.577 281.119 954.657 280.514 956.07 280.514ZM953.13 287.554C953.13 289.176 953.277 290.446 953.57 291.363L958.01 282.528C957.543 281.903 956.897 281.591 956.07 281.591C955.15 281.591 954.43 282.083 953.91 283.066C953.39 284.037 953.13 285.533 953.13 287.554ZM956.07 293.517C957.003 293.517 957.73 293.032 958.25 292.061C958.77 291.077 959.03 289.575 959.03 287.554C959.03 285.839 958.863 284.509 958.53 283.565L954.09 292.48C954.57 293.171 955.23 293.517 956.07 293.517Z" fill="url(#paint70_linear_122_130)"/>
<path d="M957.27 316.15H960.21V317.207H952.59V316.15H955.99V304.942L952.75 306.876L952.19 305.979L956.19 303.506H957.27V316.15Z" fill="url(#paint71_linear_122_130)"/>
<path d="M957.27 338.943H960.21V340H952.59V338.943H955.99V327.735L952.75 329.669L952.19 328.772L956.19 326.299H957.27V338.943Z" fill="url(#paint72_linear_122_130)"/>
<path d="M900.36 75.3784C901.786 75.3784 902.866 75.9834 903.599 77.1933C904.346 78.3899 904.719 80.1317 904.719 82.4185C904.719 84.7054 904.346 86.4538 903.599 87.6637C902.866 88.8736 901.786 89.4786 900.36 89.4786C898.946 89.4786 897.867 88.8736 897.12 87.6637C896.373 86.4538 896 84.7054 896 82.4185C896 80.145 896.373 78.4032 897.12 77.1933C897.867 75.9834 898.946 75.3784 900.36 75.3784ZM897.42 82.4185C897.42 84.0406 897.567 85.3104 897.86 86.2278L902.3 77.3927C901.833 76.7678 901.186 76.4554 900.36 76.4554C899.44 76.4554 898.72 76.9473 898.2 77.9312C897.68 78.9018 897.42 80.3976 897.42 82.4185ZM900.36 88.3817C901.293 88.3817 902.02 87.8964 902.54 86.9258C903.06 85.9419 903.319 84.4395 903.319 82.4185C903.319 80.7034 903.153 79.3738 902.82 78.4298L898.38 87.3446C898.86 88.036 899.52 88.3817 900.36 88.3817Z" fill="url(#paint73_linear_122_130)"/>
<path d="M900.36 98.1712C901.786 98.1712 902.866 98.7762 903.599 99.9861C904.346 101.183 904.719 102.924 904.719 105.211C904.719 107.498 904.346 109.247 903.599 110.457C902.866 111.666 901.786 112.271 900.36 112.271C898.946 112.271 897.867 111.666 897.12 110.457C896.373 109.247 896 107.498 896 105.211C896 102.938 896.373 101.196 897.12 99.9861C897.867 98.7762 898.946 98.1712 900.36 98.1712ZM897.42 105.211C897.42 106.833 897.567 108.103 897.86 109.021L902.3 100.186C901.833 99.5606 901.186 99.2482 900.36 99.2482C899.44 99.2482 898.72 99.7401 898.2 100.724C897.68 101.695 897.42 103.19 897.42 105.211ZM900.36 111.174C901.293 111.174 902.02 110.689 902.54 109.719C903.06 108.735 903.319 107.232 903.319 105.211C903.319 103.496 903.153 102.167 902.82 101.223L898.38 110.137C898.86 110.829 899.52 111.174 900.36 111.174Z" fill="url(#paint74_linear_122_130)"/>
<path d="M901.56 133.808H904.499V134.865H896.88V133.808H900.28V122.599L897.04 124.534L896.48 123.636L900.48 121.163H901.56V133.808Z" fill="url(#paint75_linear_122_130)"/>
<path d="M900.36 143.757C901.786 143.757 902.866 144.362 903.599 145.572C904.346 146.768 904.719 148.51 904.719 150.797C904.719 153.084 904.346 154.832 903.599 156.042C902.866 157.252 901.786 157.857 900.36 157.857C898.946 157.857 897.867 157.252 897.12 156.042C896.373 154.832 896 153.084 896 150.797C896 148.523 896.373 146.782 897.12 145.572C897.867 144.362 898.946 143.757 900.36 143.757ZM897.42 150.797C897.42 152.419 897.567 153.689 897.86 154.606L902.3 145.771C901.833 145.146 901.186 144.834 900.36 144.834C899.44 144.834 898.72 145.326 898.2 146.31C897.68 147.28 897.42 148.776 897.42 150.797ZM900.36 156.76C901.293 156.76 902.02 156.275 902.54 155.304C903.06 154.32 903.319 152.818 903.319 150.797C903.319 149.082 903.153 147.752 902.82 146.808L898.38 155.723C898.86 156.414 899.52 156.76 900.36 156.76Z" fill="url(#paint76_linear_122_130)"/>
<path d="M901.56 179.393H904.499V180.45H896.88V179.393H900.28V168.185L897.04 170.12L896.48 169.222L900.48 166.749H901.56V179.393Z" fill="url(#paint77_linear_122_130)"/>
<path d="M901.56 202.186H904.499V203.243H896.88V202.186H900.28V190.978L897.04 192.912L896.48 192.015L900.48 189.542H901.56V202.186Z" fill="url(#paint78_linear_122_130)"/>
<path d="M938.7 42.6365H941.64V43.6936H934.02V42.6365H937.42V31.4282L934.18 33.3627L933.62 32.4653L937.62 29.9922H938.7V42.6365Z" fill="url(#paint79_linear_122_130)"/>
<path d="M937.5 52.5856C938.927 52.5856 940.006 53.1906 940.74 54.4005C941.486 55.5971 941.86 57.3389 941.86 59.6257C941.86 61.9126 941.486 63.661 940.74 64.8709C940.006 66.0808 938.927 66.6858 937.5 66.6858C936.087 66.6858 935.007 66.0808 934.26 64.8709C933.514 63.661 933.14 61.9126 933.14 59.6257C933.14 57.3521 933.514 55.6104 934.26 54.4005C935.007 53.1906 936.087 52.5856 937.5 52.5856ZM934.56 59.6257C934.56 61.2478 934.707 62.5176 935 63.435L939.44 54.5999C938.973 53.975 938.327 53.6626 937.5 53.6626C936.58 53.6626 935.86 54.1545 935.34 55.1384C934.82 56.109 934.56 57.6048 934.56 59.6257ZM937.5 65.5889C938.433 65.5889 939.16 65.1036 939.68 64.133C940.2 63.1491 940.46 61.6467 940.46 59.6257C940.46 57.9106 940.293 56.581 939.96 55.637L935.52 64.5518C936 65.2432 936.66 65.5889 937.5 65.5889Z" fill="url(#paint80_linear_122_130)"/>
<path d="M938.7 88.2221H941.64V89.2792H934.02V88.2221H937.42V77.0138L934.18 78.9483L933.62 78.0509L937.62 75.5778H938.7V88.2221Z" fill="url(#paint81_linear_122_130)"/>
<path d="M938.7 111.015H941.64V112.072H934.02V111.015H937.42V99.8066L934.18 101.741L933.62 100.844L937.62 98.3706H938.7V111.015Z" fill="url(#paint82_linear_122_130)"/>
<path d="M937.5 120.964C938.927 120.964 940.006 121.569 940.74 122.779C941.486 123.976 941.86 125.717 941.86 128.004C941.86 130.291 941.486 132.039 940.74 133.249C940.006 134.459 938.927 135.064 937.5 135.064C936.087 135.064 935.007 134.459 934.26 133.249C933.514 132.039 933.14 130.291 933.14 128.004C933.14 125.731 933.514 123.989 934.26 122.779C935.007 121.569 936.087 120.964 937.5 120.964ZM934.56 128.004C934.56 129.626 934.707 130.896 935 131.813L939.44 122.978C938.973 122.353 938.327 122.041 937.5 122.041C936.58 122.041 935.86 122.533 935.34 123.517C934.82 124.487 934.56 125.983 934.56 128.004ZM937.5 133.967C938.433 133.967 939.16 133.482 939.68 132.511C940.2 131.528 940.46 130.025 940.46 128.004C940.46 126.289 940.293 124.959 939.96 124.015L935.52 132.93C936 133.622 936.66 133.967 937.5 133.967Z" fill="url(#paint83_linear_122_130)"/>
<path d="M938.7 156.601H941.64V157.658H934.02V156.601H937.42V145.392L934.18 147.327L933.62 146.429L937.62 143.956H938.7V156.601Z" fill="url(#paint84_linear_122_130)"/>
<path d="M938.7 179.393H941.64V180.45H934.02V179.393H937.42V168.185L934.18 170.12L933.62 169.222L937.62 166.749H938.7V179.393Z" fill="url(#paint85_linear_122_130)"/>
<path d="M937.5 189.342C938.927 189.342 940.006 189.947 940.74 191.157C941.486 192.354 941.86 194.096 941.86 196.383C941.86 198.669 941.486 200.418 940.74 201.628C940.006 202.838 938.927 203.443 937.5 203.443C936.087 203.443 935.007 202.838 934.26 201.628C933.514 200.418 933.14 198.669 933.14 196.383C933.14 194.109 933.514 192.367 934.26 191.157C935.007 189.947 936.087 189.342 937.5 189.342ZM934.56 196.383C934.56 198.005 934.707 199.274 935 200.192L939.44 191.357C938.973 190.732 938.327 190.419 937.5 190.419C936.58 190.419 935.86 190.911 935.34 191.895C934.82 192.866 934.56 194.362 934.56 196.383ZM937.5 202.346C938.433 202.346 939.16 201.86 939.68 200.89C940.2 199.906 940.46 198.404 940.46 196.383C940.46 194.667 940.293 193.338 939.96 192.394L935.52 201.309C936 202 936.66 202.346 937.5 202.346Z" fill="url(#paint86_linear_122_130)"/>
<path d="M938.7 224.979H941.64V226.036H934.02V224.979H937.42V213.771L934.18 215.705L933.62 214.808L937.62 212.335H938.7V224.979Z" fill="url(#paint87_linear_122_130)"/>
<path d="M937.5 234.928C938.927 234.928 940.006 235.533 940.74 236.743C941.486 237.94 941.86 239.681 941.86 241.968C941.86 244.255 941.486 246.003 940.74 247.213C940.006 248.423 938.927 249.028 937.5 249.028C936.087 249.028 935.007 248.423 934.26 247.213C933.514 246.003 933.14 244.255 933.14 241.968C933.14 239.695 933.514 237.953 934.26 236.743C935.007 235.533 936.087 234.928 937.5 234.928ZM934.56 241.968C934.56 243.59 934.707 244.86 935 245.777L939.44 236.942C938.973 236.317 938.327 236.005 937.5 236.005C936.58 236.005 935.86 236.497 935.34 237.481C934.82 238.451 934.56 239.947 934.56 241.968ZM937.5 247.931C938.433 247.931 939.16 247.446 939.68 246.475C940.2 245.492 940.46 243.989 940.46 241.968C940.46 240.253 940.293 238.923 939.96 237.979L935.52 246.894C936 247.586 936.66 247.931 937.5 247.931Z" fill="url(#paint88_linear_122_130)"/>
<path d="M974.64 29.7928C976.067 29.7928 977.147 30.3978 977.88 31.6077C978.627 32.8043 979 34.546 979 36.8329C979 39.1198 978.627 40.8682 977.88 42.0781C977.147 43.288 976.067 43.893 974.64 43.893C973.227 43.893 972.147 43.288 971.401 42.0781C970.654 40.8682 970.281 39.1198 970.281 36.8329C970.281 34.5593 970.654 32.8176 971.401 31.6077C972.147 30.3978 973.227 29.7928 974.64 29.7928ZM971.701 36.8329C971.701 38.455 971.847 39.7248 972.14 40.6422L976.58 31.8071C976.114 31.1822 975.467 30.8698 974.64 30.8698C973.72 30.8698 973 31.3617 972.48 32.3456C971.96 33.3162 971.701 34.812 971.701 36.8329ZM974.64 42.7961C975.574 42.7961 976.3 42.3108 976.82 41.3402C977.34 40.3563 977.6 38.8539 977.6 36.8329C977.6 35.1178 977.433 33.7882 977.1 32.8442L972.66 41.759C973.14 42.4504 973.8 42.7961 974.64 42.7961Z" fill="url(#paint89_linear_122_130)"/>
<path d="M975.84 65.4293H978.78V66.4864H971.161V65.4293H974.56V54.221L971.321 56.1555L970.761 55.2581L974.76 52.785H975.84V65.4293Z" fill="url(#paint90_linear_122_130)"/>
<path d="M975.84 88.2221H978.78V89.2792H971.161V88.2221H974.56V77.0138L971.321 78.9483L970.761 78.0509L974.76 75.5778H975.84V88.2221Z" fill="url(#paint91_linear_122_130)"/>
<path d="M974.64 98.1712C976.067 98.1712 977.147 98.7762 977.88 99.9861C978.627 101.183 979 102.924 979 105.211C979 107.498 978.627 109.247 977.88 110.457C977.147 111.666 976.067 112.271 974.64 112.271C973.227 112.271 972.147 111.666 971.401 110.457C970.654 109.247 970.281 107.498 970.281 105.211C970.281 102.938 970.654 101.196 971.401 99.9861C972.147 98.7762 973.227 98.1712 974.64 98.1712ZM971.701 105.211C971.701 106.833 971.847 108.103 972.14 109.021L976.58 100.186C976.114 99.5606 975.467 99.2482 974.64 99.2482C973.72 99.2482 973 99.7401 972.48 100.724C971.96 101.695 971.701 103.19 971.701 105.211ZM974.64 111.174C975.574 111.174 976.3 110.689 976.82 109.719C977.34 108.735 977.6 107.232 977.6 105.211C977.6 103.496 977.433 102.167 977.1 101.223L972.66 110.137C973.14 110.829 973.8 111.174 974.64 111.174Z" fill="url(#paint92_linear_122_130)"/>
<path d="M974.64 120.964C976.067 120.964 977.147 121.569 977.88 122.779C978.627 123.976 979 125.717 979 128.004C979 130.291 978.627 132.039 977.88 133.249C977.147 134.459 976.067 135.064 974.64 135.064C973.227 135.064 972.147 134.459 971.401 133.249C970.654 132.039 970.281 130.291 970.281 128.004C970.281 125.731 970.654 123.989 971.401 122.779C972.147 121.569 973.227 120.964 974.64 120.964ZM971.701 128.004C971.701 129.626 971.847 130.896 972.14 131.813L976.58 122.978C976.114 122.353 975.467 122.041 974.64 122.041C973.72 122.041 973 122.533 972.48 123.517C971.96 124.487 971.701 125.983 971.701 128.004ZM974.64 133.967C975.574 133.967 976.3 133.482 976.82 132.511C977.34 131.528 977.6 130.025 977.6 128.004C977.6 126.289 977.433 124.959 977.1 124.015L972.66 132.93C973.14 133.622 973.8 133.967 974.64 133.967Z" fill="url(#paint93_linear_122_130)"/>
</g>
</g>
<defs>
<filter id="filter0_f_122_130" x="-559.19" y="-679.19" width="2141.38" height="1500.38" filterUnits="userSpaceOnUse" color-interpolation-filters="sRGB">
<feFlood flood-opacity="0" result="BackgroundImageFix"/>
<feBlend mode="normal" in="SourceGraphic" in2="BackgroundImageFix" result="shape"/>
<feGaussianBlur stdDeviation="200.095" result="effect1_foregroundBlur_122_130"/>
</filter>
<linearGradient id="paint0_linear_122_130" x1="51.5" y1="307" x2="51.5" y2="618.381" gradientUnits="userSpaceOnUse">
<stop stop-color="#F7DD43"/>
<stop offset="1" stop-color="#F7DD43" stop-opacity="0"/>
</linearGradient>
<linearGradient id="paint1_linear_122_130" x1="51.5" y1="307" x2="51.5" y2="618.381" gradientUnits="userSpaceOnUse">
<stop stop-color="#F7DD43"/>
<stop offset="1" stop-color="#F7DD43" stop-opacity="0"/>
</linearGradient>
<linearGradient id="paint2_linear_122_130" x1="51.5" y1="307" x2="51.5" y2="618.381" gradientUnits="userSpaceOnUse">
<stop stop-color="#F7DD43"/>
<stop offset="1" stop-color="#F7DD43" stop-opacity="0"/>
</linearGradient>
<linearGradient id="paint3_linear_122_130" x1="51.5" y1="307" x2="51.5" y2="618.381" gradientUnits="userSpaceOnUse">
<stop stop-color="#F7DD43"/>
<stop offset="1" stop-color="#F7DD43" stop-opacity="0"/>
</linearGradient>
<linearGradient id="paint4_linear_122_130" x1="51.5" y1="307" x2="51.5" y2="618.381" gradientUnits="userSpaceOnUse">
<stop stop-color="#F7DD43"/>
<stop offset="1" stop-color="#F7DD43" stop-opacity="0"/>
</linearGradient>
<linearGradient id="paint5_linear_122_130" x1="51.5" y1="307" x2="51.5" y2="618.381" gradientUnits="userSpaceOnUse">
<stop stop-color="#F7DD43"/>
<stop offset="1" stop-color="#F7DD43" stop-opacity="0"/>
</linearGradient>
<linearGradient id="paint6_linear_122_130" x1="51.5" y1="307" x2="51.5" y2="618.381" gradientUnits="userSpaceOnUse">
<stop stop-color="#F7DD43"/>
<stop offset="1" stop-color="#F7DD43" stop-opacity="0"/>
</linearGradient>
<linearGradient id="paint7_linear_122_130" x1="51.5" y1="307" x2="51.5" y2="618.381" gradientUnits="userSpaceOnUse">
<stop stop-color="#F7DD43"/>
<stop offset="1" stop-color="#F7DD43" stop-opacity="0"/>
</linearGradient>
<linearGradient id="paint8_linear_122_130" x1="51.5" y1="307" x2="51.5" y2="618.381" gradientUnits="userSpaceOnUse">
<stop stop-color="#F7DD43"/>
<stop offset="1" stop-color="#F7DD43" stop-opacity="0"/>
</linearGradient>
<linearGradient id="paint9_linear_122_130" x1="51.5" y1="307" x2="51.5" y2="618.381" gradientUnits="userSpaceOnUse">
<stop stop-color="#F7DD43"/>
<stop offset="1" stop-color="#F7DD43" stop-opacity="0"/>
</linearGradient>
<linearGradient id="paint10_linear_122_130" x1="51.5" y1="307" x2="51.5" y2="618.381" gradientUnits="userSpaceOnUse">
<stop stop-color="#F7DD43"/>
<stop offset="1" stop-color="#F7DD43" stop-opacity="0"/>
</linearGradient>
<linearGradient id="paint11_linear_122_130" x1="51.5" y1="307" x2="51.5" y2="618.381" gradientUnits="userSpaceOnUse">
<stop stop-color="#F7DD43"/>
<stop offset="1" stop-color="#F7DD43" stop-opacity="0"/>
</linearGradient>
<linearGradient id="paint12_linear_122_130" x1="51.5" y1="307" x2="51.5" y2="618.381" gradientUnits="userSpaceOnUse">
<stop stop-color="#F7DD43"/>
<stop offset="1" stop-color="#F7DD43" stop-opacity="0"/>
</linearGradient>
<linearGradient id="paint13_linear_122_130" x1="51.5" y1="307" x2="51.5" y2="618.381" gradientUnits="userSpaceOnUse">
<stop stop-color="#F7DD43"/>
<stop offset="1" stop-color="#F7DD43" stop-opacity="0"/>
</linearGradient>
<linearGradient id="paint14_linear_122_130" x1="51.5" y1="307" x2="51.5" y2="618.381" gradientUnits="userSpaceOnUse">
<stop stop-color="#F7DD43"/>
<stop offset="1" stop-color="#F7DD43" stop-opacity="0"/>
</linearGradient>
<linearGradient id="paint15_linear_122_130" x1="51.5" y1="307" x2="51.5" y2="618.381" gradientUnits="userSpaceOnUse">
<stop stop-color="#F7DD43"/>
<stop offset="1" stop-color="#F7DD43" stop-opacity="0"/>
</linearGradient>
<linearGradient id="paint16_linear_122_130" x1="51.5" y1="307" x2="51.5" y2="618.381" gradientUnits="userSpaceOnUse">
<stop stop-color="#F7DD43"/>
<stop offset="1" stop-color="#F7DD43" stop-opacity="0"/>
</linearGradient>
<linearGradient id="paint17_linear_122_130" x1="51.5" y1="307" x2="51.5" y2="618.381" gradientUnits="userSpaceOnUse">
<stop stop-color="#F7DD43"/>
<stop offset="1" stop-color="#F7DD43" stop-opacity="0"/>
</linearGradient>
<linearGradient id="paint18_linear_122_130" x1="51.5" y1="307" x2="51.5" y2="618.381" gradientUnits="userSpaceOnUse">
<stop stop-color="#F7DD43"/>
<stop offset="1" stop-color="#F7DD43" stop-opacity="0"/>
</linearGradient>
<linearGradient id="paint19_linear_122_130" x1="51.5" y1="307" x2="51.5" y2="618.381" gradientUnits="userSpaceOnUse">
<stop stop-color="#F7DD43"/>
<stop offset="1" stop-color="#F7DD43" stop-opacity="0"/>
</linearGradient>
<linearGradient id="paint20_linear_122_130" x1="51.5" y1="307" x2="51.5" y2="618.381" gradientUnits="userSpaceOnUse">
<stop stop-color="#F7DD43"/>
<stop offset="1" stop-color="#F7DD43" stop-opacity="0"/>
</linearGradient>
<linearGradient id="paint21_linear_122_130" x1="51.5" y1="307" x2="51.5" y2="618.381" gradientUnits="userSpaceOnUse">
<stop stop-color="#F7DD43"/>
<stop offset="1" stop-color="#F7DD43" stop-opacity="0"/>
</linearGradient>
<linearGradient id="paint22_linear_122_130" x1="51.5" y1="307" x2="51.5" y2="618.381" gradientUnits="userSpaceOnUse">
<stop stop-color="#F7DD43"/>
<stop offset="1" stop-color="#F7DD43" stop-opacity="0"/>
</linearGradient>
<linearGradient id="paint23_linear_122_130" x1="51.5" y1="307" x2="51.5" y2="618.381" gradientUnits="userSpaceOnUse">
<stop stop-color="#F7DD43"/>
<stop offset="1" stop-color="#F7DD43" stop-opacity="0"/>
</linearGradient>
<linearGradient id="paint24_linear_122_130" x1="51.5" y1="307" x2="51.5" y2="618.381" gradientUnits="userSpaceOnUse">
<stop stop-color="#F7DD43"/>
<stop offset="1" stop-color="#F7DD43" stop-opacity="0"/>
</linearGradient>
<linearGradient id="paint25_linear_122_130" x1="51.5" y1="307" x2="51.5" y2="618.381" gradientUnits="userSpaceOnUse">
<stop stop-color="#F7DD43"/>
<stop offset="1" stop-color="#F7DD43" stop-opacity="0"/>
</linearGradient>
<linearGradient id="paint26_linear_122_130" x1="51.5" y1="307" x2="51.5" y2="618.381" gradientUnits="userSpaceOnUse">
<stop stop-color="#F7DD43"/>
<stop offset="1" stop-color="#F7DD43" stop-opacity="0"/>
</linearGradient>
<linearGradient id="paint27_linear_122_130" x1="51.5" y1="307" x2="51.5" y2="618.381" gradientUnits="userSpaceOnUse">
<stop stop-color="#F7DD43"/>
<stop offset="1" stop-color="#F7DD43" stop-opacity="0"/>
</linearGradient>
<linearGradient id="paint28_linear_122_130" x1="51.5" y1="307" x2="51.5" y2="618.381" gradientUnits="userSpaceOnUse">
<stop stop-color="#F7DD43"/>
<stop offset="1" stop-color="#F7DD43" stop-opacity="0"/>
</linearGradient>
<linearGradient id="paint29_linear_122_130" x1="51.5" y1="307" x2="51.5" y2="618.381" gradientUnits="userSpaceOnUse">
<stop stop-color="#F7DD43"/>
<stop offset="1" stop-color="#F7DD43" stop-opacity="0"/>
</linearGradient>
<linearGradient id="paint30_linear_122_130" x1="51.5" y1="307" x2="51.5" y2="618.381" gradientUnits="userSpaceOnUse">
<stop stop-color="#F7DD43"/>
<stop offset="1" stop-color="#F7DD43" stop-opacity="0"/>
</linearGradient>
<linearGradient id="paint31_linear_122_130" x1="51.5" y1="307" x2="51.5" y2="618.381" gradientUnits="userSpaceOnUse">
<stop stop-color="#F7DD43"/>
<stop offset="1" stop-color="#F7DD43" stop-opacity="0"/>
</linearGradient>
<linearGradient id="paint32_linear_122_130" x1="51.5" y1="307" x2="51.5" y2="618.381" gradientUnits="userSpaceOnUse">
<stop stop-color="#F7DD43"/>
<stop offset="1" stop-color="#F7DD43" stop-opacity="0"/>
</linearGradient>
<linearGradient id="paint33_linear_122_130" x1="51.5" y1="307" x2="51.5" y2="618.381" gradientUnits="userSpaceOnUse">
<stop stop-color="#F7DD43"/>
<stop offset="1" stop-color="#F7DD43" stop-opacity="0"/>
</linearGradient>
<linearGradient id="paint34_linear_122_130" x1="51.5" y1="307" x2="51.5" y2="618.381" gradientUnits="userSpaceOnUse">
<stop stop-color="#F7DD43"/>
<stop offset="1" stop-color="#F7DD43" stop-opacity="0"/>
</linearGradient>
<linearGradient id="paint35_linear_122_130" x1="51.5" y1="307" x2="51.5" y2="618.381" gradientUnits="userSpaceOnUse">
<stop stop-color="#F7DD43"/>
<stop offset="1" stop-color="#F7DD43" stop-opacity="0"/>
</linearGradient>
<linearGradient id="paint36_linear_122_130" x1="51.5" y1="307" x2="51.5" y2="618.381" gradientUnits="userSpaceOnUse">
<stop stop-color="#F7DD43"/>
<stop offset="1" stop-color="#F7DD43" stop-opacity="0"/>
</linearGradient>
<linearGradient id="paint37_linear_122_130" x1="51.5" y1="307" x2="51.5" y2="618.381" gradientUnits="userSpaceOnUse">
<stop stop-color="#F7DD43"/>
<stop offset="1" stop-color="#F7DD43" stop-opacity="0"/>
</linearGradient>
<linearGradient id="paint38_linear_122_130" x1="51.5" y1="307" x2="51.5" y2="618.381" gradientUnits="userSpaceOnUse">
<stop stop-color="#F7DD43"/>
<stop offset="1" stop-color="#F7DD43" stop-opacity="0"/>
</linearGradient>
<linearGradient id="paint39_linear_122_130" x1="51.5" y1="307" x2="51.5" y2="618.381" gradientUnits="userSpaceOnUse">
<stop stop-color="#F7DD43"/>
<stop offset="1" stop-color="#F7DD43" stop-opacity="0"/>
</linearGradient>
<linearGradient id="paint40_linear_122_130" x1="51.5" y1="307" x2="51.5" y2="618.381" gradientUnits="userSpaceOnUse">
<stop stop-color="#F7DD43"/>
<stop offset="1" stop-color="#F7DD43" stop-opacity="0"/>
</linearGradient>
<linearGradient id="paint41_linear_122_130" x1="51.5" y1="307" x2="51.5" y2="618.381" gradientUnits="userSpaceOnUse">
<stop stop-color="#F7DD43"/>
<stop offset="1" stop-color="#F7DD43" stop-opacity="0"/>
</linearGradient>
<linearGradient id="paint42_linear_122_130" x1="51.5" y1="307" x2="51.5" y2="618.381" gradientUnits="userSpaceOnUse">
<stop stop-color="#F7DD43"/>
<stop offset="1" stop-color="#F7DD43" stop-opacity="0"/>
</linearGradient>
<linearGradient id="paint43_linear_122_130" x1="51.5" y1="307" x2="51.5" y2="618.381" gradientUnits="userSpaceOnUse">
<stop stop-color="#F7DD43"/>
<stop offset="1" stop-color="#F7DD43" stop-opacity="0"/>
</linearGradient>
<linearGradient id="paint44_linear_122_130" x1="51.5" y1="307" x2="51.5" y2="618.381" gradientUnits="userSpaceOnUse">
<stop stop-color="#F7DD43"/>
<stop offset="1" stop-color="#F7DD43" stop-opacity="0"/>
</linearGradient>
<linearGradient id="paint45_linear_122_130" x1="51.5" y1="307" x2="51.5" y2="618.381" gradientUnits="userSpaceOnUse">
<stop stop-color="#F7DD43"/>
<stop offset="1" stop-color="#F7DD43" stop-opacity="0"/>
</linearGradient>
<linearGradient id="paint46_linear_122_130" x1="51.5" y1="307" x2="51.5" y2="618.381" gradientUnits="userSpaceOnUse">
<stop stop-color="#F7DD43"/>
<stop offset="1" stop-color="#F7DD43" stop-opacity="0"/>
</linearGradient>
<linearGradient id="paint47_linear_122_130" x1="937.5" y1="7" x2="937.5" y2="305.818" gradientUnits="userSpaceOnUse">
<stop stop-color="#F7DD43"/>
<stop offset="1" stop-color="#F7DD43" stop-opacity="0"/>
</linearGradient>
<linearGradient id="paint48_linear_122_130" x1="937.5" y1="7" x2="937.5" y2="305.818" gradientUnits="userSpaceOnUse">
<stop stop-color="#F7DD43"/>
<stop offset="1" stop-color="#F7DD43" stop-opacity="0"/>
</linearGradient>
<linearGradient id="paint49_linear_122_130" x1="937.5" y1="7" x2="937.5" y2="305.818" gradientUnits="userSpaceOnUse">
<stop stop-color="#F7DD43"/>
<stop offset="1" stop-color="#F7DD43" stop-opacity="0"/>
</linearGradient>
<linearGradient id="paint50_linear_122_130" x1="937.5" y1="7" x2="937.5" y2="305.818" gradientUnits="userSpaceOnUse">
<stop stop-color="#F7DD43"/>
<stop offset="1" stop-color="#F7DD43" stop-opacity="0"/>
</linearGradient>
<linearGradient id="paint51_linear_122_130" x1="937.5" y1="7" x2="937.5" y2="305.818" gradientUnits="userSpaceOnUse">
<stop stop-color="#F7DD43"/>
<stop offset="1" stop-color="#F7DD43" stop-opacity="0"/>
</linearGradient>
<linearGradient id="paint52_linear_122_130" x1="937.5" y1="7" x2="937.5" y2="305.818" gradientUnits="userSpaceOnUse">
<stop stop-color="#F7DD43"/>
<stop offset="1" stop-color="#F7DD43" stop-opacity="0"/>
</linearGradient>
<linearGradient id="paint53_linear_122_130" x1="937.5" y1="7" x2="937.5" y2="305.818" gradientUnits="userSpaceOnUse">
<stop stop-color="#F7DD43"/>
<stop offset="1" stop-color="#F7DD43" stop-opacity="0"/>
</linearGradient>
<linearGradient id="paint54_linear_122_130" x1="937.5" y1="7" x2="937.5" y2="305.818" gradientUnits="userSpaceOnUse">
<stop stop-color="#F7DD43"/>
<stop offset="1" stop-color="#F7DD43" stop-opacity="0"/>
</linearGradient>
<linearGradient id="paint55_linear_122_130" x1="937.5" y1="7" x2="937.5" y2="305.818" gradientUnits="userSpaceOnUse">
<stop stop-color="#F7DD43"/>
<stop offset="1" stop-color="#F7DD43" stop-opacity="0"/>
</linearGradient>
<linearGradient id="paint56_linear_122_130" x1="937.5" y1="7" x2="937.5" y2="305.818" gradientUnits="userSpaceOnUse">
<stop stop-color="#F7DD43"/>
<stop offset="1" stop-color="#F7DD43" stop-opacity="0"/>
</linearGradient>
<linearGradient id="paint57_linear_122_130" x1="937.5" y1="7" x2="937.5" y2="305.818" gradientUnits="userSpaceOnUse">
<stop stop-color="#F7DD43"/>
<stop offset="1" stop-color="#F7DD43" stop-opacity="0"/>
</linearGradient>
<linearGradient id="paint58_linear_122_130" x1="937.5" y1="7" x2="937.5" y2="305.818" gradientUnits="userSpaceOnUse">
<stop stop-color="#F7DD43"/>
<stop offset="1" stop-color="#F7DD43" stop-opacity="0"/>
</linearGradient>
<linearGradient id="paint59_linear_122_130" x1="937.5" y1="7" x2="937.5" y2="305.818" gradientUnits="userSpaceOnUse">
<stop stop-color="#F7DD43"/>
<stop offset="1" stop-color="#F7DD43" stop-opacity="0"/>
</linearGradient>
<linearGradient id="paint60_linear_122_130" x1="937.5" y1="7" x2="937.5" y2="305.818" gradientUnits="userSpaceOnUse">
<stop stop-color="#F7DD43"/>
<stop offset="1" stop-color="#F7DD43" stop-opacity="0"/>
</linearGradient>
<linearGradient id="paint61_linear_122_130" x1="937.5" y1="7" x2="937.5" y2="305.818" gradientUnits="userSpaceOnUse">
<stop stop-color="#F7DD43"/>
<stop offset="1" stop-color="#F7DD43" stop-opacity="0"/>
</linearGradient>
<linearGradient id="paint62_linear_122_130" x1="937.5" y1="7" x2="937.5" y2="305.818" gradientUnits="userSpaceOnUse">
<stop stop-color="#F7DD43"/>
<stop offset="1" stop-color="#F7DD43" stop-opacity="0"/>
</linearGradient>
<linearGradient id="paint63_linear_122_130" x1="937.5" y1="7" x2="937.5" y2="305.818" gradientUnits="userSpaceOnUse">
<stop stop-color="#F7DD43"/>
<stop offset="1" stop-color="#F7DD43" stop-opacity="0"/>
</linearGradient>
<linearGradient id="paint64_linear_122_130" x1="937.5" y1="7" x2="937.5" y2="305.818" gradientUnits="userSpaceOnUse">
<stop stop-color="#F7DD43"/>
<stop offset="1" stop-color="#F7DD43" stop-opacity="0"/>
</linearGradient>
<linearGradient id="paint65_linear_122_130" x1="937.5" y1="7" x2="937.5" y2="305.818" gradientUnits="userSpaceOnUse">
<stop stop-color="#F7DD43"/>
<stop offset="1" stop-color="#F7DD43" stop-opacity="0"/>
</linearGradient>
<linearGradient id="paint66_linear_122_130" x1="937.5" y1="7" x2="937.5" y2="305.818" gradientUnits="userSpaceOnUse">
<stop stop-color="#F7DD43"/>
<stop offset="1" stop-color="#F7DD43" stop-opacity="0"/>
</linearGradient>
<linearGradient id="paint67_linear_122_130" x1="937.5" y1="7" x2="937.5" y2="305.818" gradientUnits="userSpaceOnUse">
<stop stop-color="#F7DD43"/>
<stop offset="1" stop-color="#F7DD43" stop-opacity="0"/>
</linearGradient>
<linearGradient id="paint68_linear_122_130" x1="937.5" y1="7" x2="937.5" y2="305.818" gradientUnits="userSpaceOnUse">
<stop stop-color="#F7DD43"/>
<stop offset="1" stop-color="#F7DD43" stop-opacity="0"/>
</linearGradient>
<linearGradient id="paint69_linear_122_130" x1="937.5" y1="7" x2="937.5" y2="305.818" gradientUnits="userSpaceOnUse">
<stop stop-color="#F7DD43"/>
<stop offset="1" stop-color="#F7DD43" stop-opacity="0"/>
</linearGradient>
<linearGradient id="paint70_linear_122_130" x1="937.5" y1="7" x2="937.5" y2="305.818" gradientUnits="userSpaceOnUse">
<stop stop-color="#F7DD43"/>
<stop offset="1" stop-color="#F7DD43" stop-opacity="0"/>
</linearGradient>
<linearGradient id="paint71_linear_122_130" x1="937.5" y1="7" x2="937.5" y2="305.818" gradientUnits="userSpaceOnUse">
<stop stop-color="#F7DD43"/>
<stop offset="1" stop-color="#F7DD43" stop-opacity="0"/>
</linearGradient>
<linearGradient id="paint72_linear_122_130" x1="937.5" y1="7" x2="937.5" y2="305.818" gradientUnits="userSpaceOnUse">
<stop stop-color="#F7DD43"/>
<stop offset="1" stop-color="#F7DD43" stop-opacity="0"/>
</linearGradient>
<linearGradient id="paint73_linear_122_130" x1="937.5" y1="7" x2="937.5" y2="305.818" gradientUnits="userSpaceOnUse">
<stop stop-color="#F7DD43"/>
<stop offset="1" stop-color="#F7DD43" stop-opacity="0"/>
</linearGradient>
<linearGradient id="paint74_linear_122_130" x1="937.5" y1="7" x2="937.5" y2="305.818" gradientUnits="userSpaceOnUse">
<stop stop-color="#F7DD43"/>
<stop offset="1" stop-color="#F7DD43" stop-opacity="0"/>
</linearGradient>
<linearGradient id="paint75_linear_122_130" x1="937.5" y1="7" x2="937.5" y2="305.818" gradientUnits="userSpaceOnUse">
<stop stop-color="#F7DD43"/>
<stop offset="1" stop-color="#F7DD43" stop-opacity="0"/>
</linearGradient>
<linearGradient id="paint76_linear_122_130" x1="937.5" y1="7" x2="937.5" y2="305.818" gradientUnits="userSpaceOnUse">
<stop stop-color="#F7DD43"/>
<stop offset="1" stop-color="#F7DD43" stop-opacity="0"/>
</linearGradient>
<linearGradient id="paint77_linear_122_130" x1="937.5" y1="7" x2="937.5" y2="305.818" gradientUnits="userSpaceOnUse">
<stop stop-color="#F7DD43"/>
<stop offset="1" stop-color="#F7DD43" stop-opacity="0"/>
</linearGradient>
<linearGradient id="paint78_linear_122_130" x1="937.5" y1="7" x2="937.5" y2="305.818" gradientUnits="userSpaceOnUse">
<stop stop-color="#F7DD43"/>
<stop offset="1" stop-color="#F7DD43" stop-opacity="0"/>
</linearGradient>
<linearGradient id="paint79_linear_122_130" x1="937.5" y1="7" x2="937.5" y2="305.818" gradientUnits="userSpaceOnUse">
<stop stop-color="#F7DD43"/>
<stop offset="1" stop-color="#F7DD43" stop-opacity="0"/>
</linearGradient>
<linearGradient id="paint80_linear_122_130" x1="937.5" y1="7" x2="937.5" y2="305.818" gradientUnits="userSpaceOnUse">
<stop stop-color="#F7DD43"/>
<stop offset="1" stop-color="#F7DD43" stop-opacity="0"/>
</linearGradient>
<linearGradient id="paint81_linear_122_130" x1="937.5" y1="7" x2="937.5" y2="305.818" gradientUnits="userSpaceOnUse">
<stop stop-color="#F7DD43"/>
<stop offset="1" stop-color="#F7DD43" stop-opacity="0"/>
</linearGradient>
<linearGradient id="paint82_linear_122_130" x1="937.5" y1="7" x2="937.5" y2="305.818" gradientUnits="userSpaceOnUse">
<stop stop-color="#F7DD43"/>
<stop offset="1" stop-color="#F7DD43" stop-opacity="0"/>
</linearGradient>
<linearGradient id="paint83_linear_122_130" x1="937.5" y1="7" x2="937.5" y2="305.818" gradientUnits="userSpaceOnUse">
<stop stop-color="#F7DD43"/>
<stop offset="1" stop-color="#F7DD43" stop-opacity="0"/>
</linearGradient>
<linearGradient id="paint84_linear_122_130" x1="937.5" y1="7" x2="937.5" y2="305.818" gradientUnits="userSpaceOnUse">
<stop stop-color="#F7DD43"/>
<stop offset="1" stop-color="#F7DD43" stop-opacity="0"/>
</linearGradient>
<linearGradient id="paint85_linear_122_130" x1="937.5" y1="7" x2="937.5" y2="305.818" gradientUnits="userSpaceOnUse">
<stop stop-color="#F7DD43"/>
<stop offset="1" stop-color="#F7DD43" stop-opacity="0"/>
</linearGradient>
<linearGradient id="paint86_linear_122_130" x1="937.5" y1="7" x2="937.5" y2="305.818" gradientUnits="userSpaceOnUse">
<stop stop-color="#F7DD43"/>
<stop offset="1" stop-color="#F7DD43" stop-opacity="0"/>
</linearGradient>
<linearGradient id="paint87_linear_122_130" x1="937.5" y1="7" x2="937.5" y2="305.818" gradientUnits="userSpaceOnUse">
<stop stop-color="#F7DD43"/>
<stop offset="1" stop-color="#F7DD43" stop-opacity="0"/>
</linearGradient>
<linearGradient id="paint88_linear_122_130" x1="937.5" y1="7" x2="937.5" y2="305.818" gradientUnits="userSpaceOnUse">
<stop stop-color="#F7DD43"/>
<stop offset="1" stop-color="#F7DD43" stop-opacity="0"/>
</linearGradient>
<linearGradient id="paint89_linear_122_130" x1="937.5" y1="7" x2="937.5" y2="305.818" gradientUnits="userSpaceOnUse">
<stop stop-color="#F7DD43"/>
<stop offset="1" stop-color="#F7DD43" stop-opacity="0"/>
</linearGradient>
<linearGradient id="paint90_linear_122_130" x1="937.5" y1="7" x2="937.5" y2="305.818" gradientUnits="userSpaceOnUse">
<stop stop-color="#F7DD43"/>
<stop offset="1" stop-color="#F7DD43" stop-opacity="0"/>
</linearGradient>
<linearGradient id="paint91_linear_122_130" x1="937.5" y1="7" x2="937.5" y2="305.818" gradientUnits="userSpaceOnUse">
<stop stop-color="#F7DD43"/>
<stop offset="1" stop-color="#F7DD43" stop-opacity="0"/>
</linearGradient>
<linearGradient id="paint92_linear_122_130" x1="937.5" y1="7" x2="937.5" y2="305.818" gradientUnits="userSpaceOnUse">
<stop stop-color="#F7DD43"/>
<stop offset="1" stop-color="#F7DD43" stop-opacity="0"/>
</linearGradient>
<linearGradient id="paint93_linear_122_130" x1="937.5" y1="7" x2="937.5" y2="305.818" gradientUnits="userSpaceOnUse">
<stop stop-color="#F7DD43"/>
<stop offset="1" stop-color="#F7DD43" stop-opacity="0"/>
</linearGradient>
<clipPath id="clip0_122_130">
<rect width="1024" height="753" fill="white"/>
</clipPath>
</defs>
</svg>
